<svg xmlns="http://www.w3.org/2000/svg" viewBox="0 0 560 560" fill="none"><g clip-path="url(#clip0_10048_1085)"><path fill-rule="evenodd" clip-rule="evenodd" d="M273.108 0.0831757C275.398 0.0278308 277.696 0 280 0C282.304 0 284.602 0.0278314 286.892 0.0831775L286.844 2.08259C284.569 2.02764 282.288 2 280 2C277.712 2 275.431 2.02764 273.156 2.08259L273.108 0.0831757ZM245.704 2.07951C250.231 1.52663 254.791 1.08179 259.382 0.747643L259.527 2.74237C254.969 3.07415 250.441 3.51583 245.946 4.06476L245.704 2.07951ZM300.618 0.747649C305.209 1.0818 309.769 1.52664 314.296 2.07952L314.054 4.06477C309.559 3.51583 305.031 3.07415 300.473 2.74237L300.618 0.747649ZM218.625 6.7476C223.08 5.75133 227.575 4.86122 232.107 4.08006L232.447 6.051C227.947 6.82656 223.485 7.71028 219.062 8.69939L218.625 6.7476ZM327.893 4.08007C332.425 4.86123 336.92 5.75135 341.375 6.74762L340.938 8.69941C336.515 7.7103 332.053 6.82657 327.553 6.05101L327.893 4.08007ZM192.137 14.063C196.476 12.6304 200.861 11.3009 205.291 10.0776L205.823 12.0055C201.426 13.22 197.072 14.5398 192.765 15.9621L192.137 14.063ZM354.709 10.0777C359.139 11.301 363.524 12.6304 367.863 14.063L367.236 15.9621C362.928 14.5398 358.574 13.22 354.177 12.0055L354.709 10.0777ZM166.501 23.9589C170.68 22.1036 174.913 20.3477 179.197 18.694L179.917 20.5598C175.664 22.2016 171.462 23.9449 167.313 25.7868L166.501 23.9589ZM380.803 18.694C385.087 20.3477 389.32 22.1036 393.499 23.9589L392.687 25.7869C388.538 23.9449 384.336 22.2016 380.083 20.5598L380.803 18.694ZM141.965 36.3332C145.944 34.0744 149.983 31.9103 154.08 29.8438L154.981 31.6295C150.913 33.6812 146.903 35.8299 142.952 38.0725L141.965 36.3332ZM405.92 29.8438C410.017 31.9103 414.056 34.0745 418.035 36.3333L417.048 38.0725C413.098 35.8299 409.087 33.6812 405.019 31.6296L405.92 29.8438ZM118.762 51.0563C122.502 48.4173 126.31 45.8675 130.183 43.4102L131.254 45.0989C127.409 47.5387 123.629 50.0702 119.915 52.6905L118.762 51.0563ZM429.817 43.4102C433.69 45.8675 437.498 48.4173 441.238 51.0564L440.085 52.6906C436.371 50.0703 432.591 47.5387 428.746 45.0989L429.817 43.4102ZM97.1095 67.9773C100.576 64.9843 104.117 62.0749 107.729 59.2522L108.96 60.828C105.374 63.6307 101.858 66.5194 98.4165 69.4911L97.1095 67.9773ZM452.271 59.2522C455.883 62.0749 459.424 64.9843 462.891 67.9773L461.584 69.4911C458.142 66.5194 454.626 63.6307 451.04 60.8281L452.271 59.2522ZM77.2102 86.9286C80.3701 83.6106 83.6106 80.3701 86.9286 77.2101L88.3079 78.6584C85.0135 81.7959 81.7959 85.0135 78.6584 88.3079L77.2102 86.9286ZM473.071 77.2102C476.389 80.3701 479.63 83.6106 482.79 86.9286L481.342 88.3079C478.204 85.0135 474.987 81.7959 471.692 78.6584L473.071 77.2102ZM59.2522 107.729C62.0749 104.117 64.9843 100.576 67.9773 97.1094L69.4911 98.4164C66.5194 101.858 63.6307 105.374 60.8281 108.96L59.2522 107.729ZM492.023 97.1095C495.016 100.576 497.925 104.117 500.748 107.729L499.172 108.96C496.369 105.374 493.481 101.858 490.509 98.4165L492.023 97.1095ZM43.4102 130.183C45.8675 126.31 48.4173 122.502 51.0564 118.762L52.6906 119.915C50.0703 123.629 47.5387 127.409 45.0989 131.254L43.4102 130.183ZM508.944 118.762C511.583 122.502 514.133 126.31 516.59 130.183L514.901 131.254C512.461 127.409 509.93 123.629 507.309 119.915L508.944 118.762ZM29.8438 154.08C31.9103 149.983 34.0745 145.944 36.3333 141.965L38.0725 142.952C35.8299 146.902 33.6812 150.913 31.6296 154.981L29.8438 154.08ZM523.667 141.965C525.926 145.944 528.09 149.983 530.156 154.08L528.37 154.981C526.319 150.913 524.17 146.903 521.927 142.952L523.667 141.965ZM18.694 179.197C20.3477 174.913 22.1036 170.68 23.9589 166.501L25.7869 167.313C23.9449 171.462 22.2016 175.664 20.5598 179.917L18.694 179.197ZM536.041 166.501C537.896 170.68 539.652 174.913 541.306 179.197L539.44 179.917C537.798 175.664 536.055 171.462 534.213 167.313L536.041 166.501ZM10.0777 205.291C11.301 200.861 12.6304 196.476 14.063 192.137L15.9621 192.765C14.5398 197.072 13.22 201.426 12.0055 205.823L10.0777 205.291ZM545.937 192.137C547.37 196.476 548.699 200.861 549.922 205.291L547.995 205.823C546.78 201.426 545.46 197.072 544.038 192.765L545.937 192.137ZM4.08007 232.107C4.86123 227.575 5.75135 223.08 6.74762 218.625L8.69941 219.062C7.7103 223.485 6.82657 227.947 6.05101 232.447L4.08007 232.107ZM553.252 218.625C554.249 223.08 555.139 227.575 555.92 232.107L553.949 232.447C553.173 227.947 552.29 223.485 551.301 219.062L553.252 218.625ZM0.747649 259.382C1.0818 254.791 1.52664 250.231 2.07952 245.704L4.06477 245.946C3.51583 250.441 3.07415 254.969 2.74237 259.527L0.747649 259.382ZM557.92 245.704C558.473 250.231 558.918 254.791 559.252 259.382L557.258 259.527C556.926 254.969 556.484 250.441 555.935 245.946L557.92 245.704ZM0 280C0 277.696 0.0278314 275.398 0.0831775 273.108L2.08259 273.156C2.02764 275.431 2 277.712 2 280C2 282.288 2.02764 284.569 2.08259 286.844L0.0831757 286.892C0.0278308 284.602 0 282.304 0 280ZM559.917 273.108C559.972 275.398 560 277.696 560 280C560 282.304 559.972 284.602 559.917 286.892L557.917 286.844C557.972 284.569 558 282.288 558 280C558 277.712 557.972 275.431 557.917 273.156L559.917 273.108ZM2.07951 314.296C1.52663 309.769 1.08179 305.209 0.747643 300.618L2.74237 300.473C3.07415 305.031 3.51583 309.559 4.06476 314.054L2.07951 314.296ZM559.252 300.618C558.918 305.209 558.473 309.769 557.92 314.296L555.935 314.054C556.484 309.559 556.926 305.031 557.258 300.473L559.252 300.618ZM6.7476 341.375C5.75133 336.92 4.86122 332.425 4.08006 327.893L6.051 327.553C6.82656 332.053 7.71028 336.515 8.69939 340.938L6.7476 341.375ZM555.92 327.893C555.139 332.425 554.249 336.92 553.252 341.375L551.301 340.938C552.29 336.515 553.173 332.053 553.949 327.553L555.92 327.893ZM14.063 367.863C12.6304 363.524 11.3009 359.139 10.0776 354.709L12.0055 354.177C13.22 358.574 14.5398 362.928 15.9621 367.235L14.063 367.863ZM549.922 354.709C548.699 359.139 547.37 363.524 545.937 367.863L544.038 367.236C545.46 362.928 546.78 358.574 547.995 354.177L549.922 354.709ZM23.9589 393.499C22.1036 389.32 20.3477 385.087 18.694 380.803L20.5598 380.083C22.2016 384.336 23.9449 388.538 25.7868 392.687L23.9589 393.499ZM541.306 380.803C539.652 385.087 537.896 389.32 536.041 393.499L534.213 392.687C536.055 388.538 537.798 384.336 539.44 380.083L541.306 380.803ZM36.3332 418.035C34.0744 414.056 31.9103 410.017 29.8438 405.92L31.6295 405.019C33.6812 409.087 35.8299 413.097 38.0725 417.048L36.3332 418.035ZM530.156 405.92C528.09 410.017 525.926 414.056 523.667 418.035L521.927 417.048C524.17 413.098 526.319 409.087 528.37 405.019L530.156 405.92ZM51.0563 441.238C48.4173 437.498 45.8675 433.69 43.4102 429.817L45.0989 428.746C47.5387 432.591 50.0702 436.371 52.6905 440.085L51.0563 441.238ZM516.59 429.817C514.132 433.69 511.583 437.498 508.944 441.238L507.309 440.085C509.93 436.371 512.461 432.591 514.901 428.746L516.59 429.817ZM67.9773 462.891C64.9843 459.424 62.0749 455.883 59.2522 452.271L60.828 451.04C63.6307 454.626 66.5194 458.142 69.4911 461.584L67.9773 462.891ZM500.748 452.271C497.925 455.883 495.016 459.424 492.023 462.891L490.509 461.584C493.481 458.142 496.369 454.626 499.172 451.04L500.748 452.271ZM86.9286 482.79C83.6106 479.63 80.3701 476.389 77.2101 473.071L78.6584 471.692C81.7959 474.987 85.0135 478.204 88.3079 481.342L86.9286 482.79ZM482.79 473.071C479.63 476.389 476.389 479.63 473.071 482.79L471.692 481.342C474.987 478.204 478.204 474.987 481.342 471.692L482.79 473.071ZM107.729 500.748C104.117 497.925 100.576 495.016 97.1094 492.023L98.4164 490.509C101.858 493.481 105.374 496.369 108.96 499.172L107.729 500.748ZM462.891 492.023C459.424 495.016 455.883 497.925 452.271 500.748L451.04 499.172C454.626 496.369 458.142 493.481 461.584 490.509L462.891 492.023ZM130.183 516.59C126.31 514.132 122.502 511.583 118.762 508.944L119.915 507.309C123.629 509.93 127.409 512.461 131.254 514.901L130.183 516.59ZM441.238 508.944C437.498 511.583 433.69 514.133 429.817 516.59L428.746 514.901C432.591 512.461 436.371 509.93 440.085 507.309L441.238 508.944ZM154.08 530.156C149.983 528.09 145.944 525.926 141.965 523.667L142.952 521.927C146.902 524.17 150.913 526.319 154.981 528.37L154.08 530.156ZM418.035 523.667C414.056 525.926 410.017 528.09 405.92 530.156L405.019 528.37C409.087 526.319 413.097 524.17 417.048 521.927L418.035 523.667ZM179.197 541.306C174.913 539.652 170.68 537.896 166.501 536.041L167.313 534.213C171.462 536.055 175.664 537.798 179.917 539.44L179.197 541.306ZM393.499 536.041C389.32 537.896 385.087 539.652 380.803 541.306L380.083 539.44C384.336 537.798 388.538 536.055 392.687 534.213L393.499 536.041ZM205.291 549.922C200.861 548.699 196.476 547.37 192.137 545.937L192.765 544.038C197.072 545.46 201.426 546.78 205.823 547.995L205.291 549.922ZM367.863 545.937C363.524 547.37 359.139 548.699 354.709 549.922L354.177 547.995C358.574 546.78 362.928 545.46 367.235 544.038L367.863 545.937ZM232.107 555.92C227.575 555.139 223.08 554.249 218.625 553.252L219.062 551.301C223.485 552.29 227.947 553.173 232.447 553.949L232.107 555.92ZM341.375 553.252C336.92 554.249 332.425 555.139 327.893 555.92L327.553 553.949C332.053 553.173 336.515 552.29 340.938 551.301L341.375 553.252ZM259.382 559.252C254.791 558.918 250.231 558.473 245.704 557.92L245.946 555.935C250.441 556.484 254.969 556.926 259.527 557.258L259.382 559.252ZM314.296 557.92C309.769 558.473 305.209 558.918 300.618 559.252L300.473 557.258C305.031 556.926 309.559 556.484 314.054 555.935L314.296 557.92ZM280 560C277.696 560 275.398 559.972 273.108 559.917L273.156 557.917C275.431 557.972 277.712 558 280 558C282.288 558 284.569 557.972 286.844 557.917L286.892 559.917C284.602 559.972 282.304 560 280 560Z" fill="#4F5BFF"/></g></svg>