<svg xmlns="http://www.w3.org/2000/svg" fill="none" viewBox="0 0 18 21"><path fill="#fff" fill-rule="evenodd" d="M3.096 4.5h11.808c.882 0 1.596.736 1.596 1.644v1.149c0 .44-.172.864-.478 1.172L11.143 13.4a.44.44 0 0 1-.316.133l-4.085-.013a.443.443 0 0 1-.328-.146L1.931 8.443A1.672 1.672 0 0 1 1.5 7.318V6.145c0-.908.714-1.645 1.596-1.645ZM6.96 14.868l3.641.011c.227.001.41.191.41.424v2.049a.6.6 0 0 1-.339.543l-3.305 1.552a.571.571 0 0 1-.554-.042.601.601 0 0 1-.266-.502v-3.61c0-.236.185-.426.413-.425Z" clip-rule="evenodd"/><circle cx="14" cy="4" r="4" fill="#4F5BFF"/></svg>